<svg xmlns="http://www.w3.org/2000/svg" id="Layer_1" data-name="Layer 1" version="1.1" viewBox="0 0 503 360">
  <defs>
    <style>
      .cls-1 {
      fill: #000;
      stroke-width: 0px;
      }
    </style>
  </defs>
  <path class="cls-1" d="M204.2.4h28.4c.3.9.4,1.8.6,2.7.1,1.6,0,3.2,0,4.8v327.5c1.1.2,2.3.4,3.5.5h21.1c1.5,0,3.2-.4,4.7.6.2.4.3.9.4,1.3v25.4c0,.5-.2.9-.4,1.3-1.7.9-3.5.5-5.2.5h-110.5c-8.5.2-15.5-6.6-15.7-15V.9c.6-.3,1.3-.5,2-.6h24.9c.7,0,1.3.2,1.9.4.2.8.3,1.6.4,2.4v325.9c0,2.2-.5,4.5.5,6.5,4.1.7,38.5.7,42.8,0,.1-.8.3-1.7.3-2.6V6.9c-.1-2.2,0-4.4.4-6.5h0Z"/>
  <path class="cls-1" d="M368.1,131.4h-28.6c-1-2.1-.6-3.8-.6-5.5V34.5c0-1.5-.1-3.1-.2-4.8-1.2-.2-2.2-.4-3.1-.4-12.9-.4-35.7-.2-39.9.4-.2.9-.4,1.7-.5,2.6v122c0,1.9-.2,3.8.4,5.8,1.7.8,3.5.5,5.2.5h64.1c.9,0,1.9.2,3,.4.1,1,.3,1.9.4,2.9s0,1.6,0,2.4v180.9c0,2.2-.2,4.4-.7,6.6-1.5,6.5-7.2,11.1-13.9,11.3h-71.3c-2.6.1-5.1-.3-7.5-1.2-4.9-2.2-8-6-8.7-11.2s-.4-10.8,0-16.3c1.7-.5,3.6-.6,5.4-.5h61.7c1.7,0,3.5.2,5.3-.5.1-1,.3-1.9.3-2.8.6-21.9.2-137.5-.4-142.2-1.6-1-3.4-.5-5.1-.5h-61.7c-1.7,0-3.5-.1-5.4-.2-.1-1.2-.3-2.1-.3-3V14.4c.3-7.5,6.2-13.6,13.7-14.3,1.3-.1,2.5-.2,3.8-.2h79.9c1.4,0,2.8.1,4.1.2,1.2,1.6.8,3.3.8,4.8v120.6c0,1.7,0,3.4-.2,5.8h0Z"/>
  <path class="cls-1" d="M266.1,224.5c4.5-.7,24.4-.7,28.7,0,.1.8.2,1.7.3,2.6s0,1.9,0,2.9v102.8c-.6.3-1.3.5-2,.6h-25.3c-.4,0-.8-.1-1.1-.3-.2-.1-.4-.3-.5-.5,0-.1-.1-.3-.1-.4,0-34.9,0-69.8-.1-104.6,0-.9.1-1.9.2-3.1h-.1Z"/>
  <path class="cls-1" d="M102.3,15.5c-.2-4.2-2-8.1-5-11-3.1-2.8-7.2-4.4-11.3-4.3H3.1c-.9,0-1.8,0-2.7.3C.2,1,0,1.6,0,2.1v360.4c0,.6.1,1.2.3,2.5h84.1c1.3,0,2.6,0,3.8-.1,6.6-.6,11.5-4.8,13.4-11.2.6-2.5.8-5,.7-7.6V15.6h0ZM72.6,335.5c-.8.2-1.5.4-2.3.4H32c-.6,0-1.2-.1-2.3-.3-.2-.7-.3-1.5-.3-2.2V31.6c0-.4.1-.8.3-1.2.1-.2.3-.3.5-.4.1,0,.3-.1.4-.1,13.1,0,26.1-.1,39.2-.1s1.6.1,2.6.2c.2.9.4,1.8.5,2.7v296.5c.2,2.1,0,4.2-.3,6.3h0Z"/>
  <path class="cls-1" d="M502.6,13.2c-1-6.7-6.4-11.9-13.1-12.8-1.6-.2-3.2-.2-4.8-.2h-111.5c-.9.1-1.7.3-2.6.6-.7,8.6-.4,25,.5,28.6,4.6.4,9.4.1,14.2.2,4.9,0,9.8-.1,15.3.1,0,2.8.1,4.8.1,6.9v325.4c0,.9.2,1.8.2,2.7.5.2,1.1.3,1.6.4h25.4c.7-.1,1.3-.3,1.9-.6v-171.3c.1-1,.3-2,.5-3,1.9,0,3.7-.1,5.4-.1h52.1c7.5-.4,13-5,14.5-12.3.4-2,.6-4.1.5-6.2V18.9c0-1.9,0-3.9-.4-5.8h.2ZM473.7,35.6v124.6c-4.6.8-39,.8-43.3,0-.1-.8-.4-1.7-.4-2.6V36.1c0-1.9,0-3.8.1-5.9.8-.3,1.6-.4,2.4-.5h38.8c.7,0,1.4.2,2.1.3.1,1,.3,1.9.4,2.8v2.9h-.1Z"/>
</svg>
