<svg id="图层_1" data-name="图层 1" xmlns="http://www.w3.org/2000/svg" viewBox="0 0 850.39 850.39"><defs><style>.cls-1{fill:#fff;}</style></defs><path class="cls-1" d="M154.43,560.41l-22.15-33.64h14.89l13.72,23.41,14.44-23.41h15.16l-23.32,34.08V586.6H154.43Z"/><path class="cls-1" d="M223.06,526.41a38.33,38.33,0,0,1,15.78,3.05,21.05,21.05,0,0,1,11.21,12.29,44.94,44.94,0,0,1,2.52,15.79,38.21,38.21,0,0,1-3,15.87,21.94,21.94,0,0,1-11.84,11.22A37.13,37.13,0,0,1,224,587a38.52,38.52,0,0,1-17.58-3.77,21.05,21.05,0,0,1-9.6-9.87q-3.31-6.72-3.32-16.32,0-17.13,8.52-24.4Q209.25,526.49,223.06,526.41Zm.09,10.05q-8.79,0-12.56,5.74-3.06,4.49-3.05,14.44,0,10.49,3.76,15.43c2.52,3.23,6.49,4.84,11.94,4.84q7.89,0,11.61-4.93t3.73-15.25q0-9.42-3.05-14.35Q232,536.55,223.15,536.46Z"/><path class="cls-1" d="M273.73,542.73V586.6h-12.2V526.77h16.33l23.77,44.58V526.77h12.11V586.6H298.13Z"/><path class="cls-1" d="M325.94,526.77h25.39q9.5,0,14.71,1.88a20.17,20.17,0,0,1,12.83,12.83,47.78,47.78,0,0,1,2.42,15.34A48.93,48.93,0,0,1,379,572.07q-2.32,7.35-7.71,10.85a21.11,21.11,0,0,1-7.49,2.92,74.68,74.68,0,0,1-12.42.76H325.94Zm12.74,10.67v38.48h12.65q8.34,0,11.57-3.67a17.63,17.63,0,0,0,3.18-6.55,32.24,32.24,0,0,0,1.22-9,31.28,31.28,0,0,0-1.44-9.69,15.17,15.17,0,0,0-3.77-6.55q-3.4-3-10.76-3Z"/><path class="cls-1" d="M435,526.77v10.67h-16.6a35.49,35.49,0,0,0-9.42.9,9.53,9.53,0,0,0-4.93,3.5,10.72,10.72,0,0,0-1.84,3.58,38,38,0,0,0-.85,6.1H435V562.2H401.38q.72,7.71,4.57,10.72t13.1,3h16V586.6h-16.6a76.53,76.53,0,0,1-11.84-.81,20.37,20.37,0,0,1-12.82-7.08q-6.83-8.26-6.82-22.34,0-15.61,9.59-24.31a19.33,19.33,0,0,1,7.05-4.13,34.8,34.8,0,0,1,10-1.16Z"/><path class="cls-1" d="M489.2,526.77h12.64v33.64q.27,6.36.54,8.43a6.76,6.76,0,0,0,3.95,5.6q3.32,1.48,11.66,1.48h12.2V586.6H516.64q-9.58,0-13.9-1.08-9.87-2.87-12.56-12.56-1-3.76-1-12.55Z"/><path class="cls-1" d="M531.8,586.6l24.77-59.83h14.61L596,586.6H581.06l-5.84-13.82H552.53L546.7,586.6Zm32.12-45.39-8.52,20.9h17Z"/><path class="cls-1" d="M602.4,586.6V526.77h33.82q8,0,11.57,1.88a13.43,13.43,0,0,1,6.37,6.91,16.55,16.55,0,0,1-.94,15.61,13.12,13.12,0,0,1-6.24,5.56q8.7,3.94,8.7,14.08a16.58,16.58,0,0,1-2.78,9.78,12.42,12.42,0,0,1-6.19,4.71q-3.76,1.31-11.21,1.3Zm12.74-35.25h17.31a20.53,20.53,0,0,0,4-.27,6.07,6.07,0,0,0,2.38-1.17A7.09,7.09,0,0,0,641.6,544a5.88,5.88,0,0,0-2.6-5.29q-1.89-1.26-6.28-1.26H615.14Zm0,24.57h17.31a22.55,22.55,0,0,0,4-.26,5.36,5.36,0,0,0,2.33-1.17,7.08,7.08,0,0,0,2.78-5.92,5.88,5.88,0,0,0-2.6-5.29q-1.89-1.26-6.28-1.26H615.14Z"/><path class="cls-1" d="M664.74,586.6V575.92H692.1c4.37,0,7.27-.41,8.7-1.25a6.16,6.16,0,0,0,3.14-5.65,6.7,6.7,0,0,0-3.68-6.37q-2.06-1.17-6.63-1.17H682.5q-10.14,0-14.62-3.68a16.09,16.09,0,0,1-4.35-5.82,18.19,18.19,0,0,1-1.57-7.54A19.39,19.39,0,0,1,665.64,533q3.58-5,11.48-5.92c1.79-.18,4.46-.27,8-.27h29.7v10.67H688a47.72,47.72,0,0,0-8,.54q-4,1-4,6.1,0,4.3,3.41,5.74,2.25,1.08,7.54,1.08h9.6q7.35,0,10.94,1.25a14,14,0,0,1,8.79,7.54,22.72,22.72,0,0,1,1.88,9.24,19.11,19.11,0,0,1-2.5,9.78,14.54,14.54,0,0,1-10.5,7.35,72,72,0,0,1-10.32.54Z"/><path class="cls-1" d="M503.55,235.56l-184,237.08H340l-18.54,23.9H295.15a12,12,0,0,1-9.42-19.31l184-237h-71l-18.55-23.9h114a11.91,11.91,0,0,1,9.41,19.26Z"/><polygon class="cls-1" points="526.4 496.54 337.4 496.54 430.99 375.99 446.15 395.5 386.25 472.64 507.85 472.64 526.4 496.54"/><polygon class="cls-1" points="415.24 284.6 400.09 304.1 331.75 216.3 362.08 216.3 415.24 284.6"/><path class="cls-1" d="M566,489.8a12,12,0,0,1-10.75,6.74h-5.83L411.62,319.07l15.2-19.38L564.67,477.23A12,12,0,0,1,566,489.8Z"/></svg>