<?xml version="1.0" encoding="UTF-8"?>
<svg xmlns="http://www.w3.org/2000/svg" xmlns:xlink="http://www.w3.org/1999/xlink" width="1522pt" height="478.26pt" viewBox="0 0 1522 478.26" version="1.1">
<defs>
<clipPath id="clip1">
  <path d="M 0 0 L 479 0 L 479 478.261719 L 0 478.261719 Z M 0 0 "/>
</clipPath>
<clipPath id="clip2">
  <path d="M 177 251 L 281 251 L 281 478.261719 L 177 478.261719 Z M 177 251 "/>
</clipPath>
</defs>
<g id="surface1">
<path style=" stroke:none;fill-rule:nonzero;fill:rgb(36.936951%,32.276917%,23.449707%);fill-opacity:1;" d="M 754.199219 326.992188 C 736.8125 334.953125 710.289063 337.015625 691.429688 337.015625 C 631.007813 337.015625 591.222656 296.929688 591.222656 235.925781 C 591.222656 175.511719 639.554688 140.441406 696.730469 140.441406 C 714.117188 140.441406 739.464844 141.617188 755.96875 147.511719 L 755.96875 192.015625 L 749.484375 193.195313 C 746.246094 163.132813 720.011719 150.753906 692.3125 150.753906 C 646.628906 150.753906 620.105469 181.699219 620.105469 226.203125 C 620.105469 280.722656 650.75 322.570313 707.929688 322.570313 C 724.726563 322.570313 746.246094 316.972656 759.800781 306.363281 L 754.199219 326.992188 "/>
<path style=" stroke:none;fill-rule:nonzero;fill:rgb(36.936951%,32.276917%,23.449707%);fill-opacity:1;" d="M 802.53125 296.046875 C 802.53125 311.082031 813.429688 319.328125 827.582031 319.328125 C 861.179688 319.328125 858.234375 287.796875 859.113281 263.335938 C 838.484375 263.042969 802.53125 269.523438 802.53125 296.046875 Z M 906.5625 332.003906 L 865.011719 338.191406 C 861.769531 331.714844 860.292969 322.28125 859.410156 314.910156 C 849.390625 329.058594 827.871094 337.304688 810.78125 337.304688 C 790.449219 337.304688 776.300781 326.105469 776.300781 304.890625 C 776.300781 268.933594 833.480469 257.148438 859.410156 250.371094 C 859.410156 244.472656 859.699219 238.875 859.699219 232.980469 C 859.699219 211.171875 849.390625 203.214844 828.171875 203.214844 C 811.964844 203.214844 797.222656 208.222656 786.019531 220.601563 L 786.019531 197.023438 C 801.648438 192.3125 819.324219 189.949219 835.539063 189.949219 C 867.070313 189.949219 885.050781 196.140625 885.050781 230.328125 C 885.050781 250.371094 883.875 270.117188 883.875 289.859375 C 883.875 308.722656 883.875 326.40625 907.738281 325.519531 L 906.5625 332.003906 "/>
<path style=" stroke:none;fill-rule:nonzero;fill:rgb(36.936951%,32.276917%,23.449707%);fill-opacity:1;" d="M 985.546875 334.953125 L 930.726563 334.953125 C 936.324219 323.164063 936.917969 311.371094 936.917969 298.699219 L 936.917969 155.175781 C 936.917969 136.3125 929.546875 132.777344 912.15625 132.480469 L 913.929688 126.589844 L 961.378906 119.515625 L 961.378906 295.164063 C 961.378906 315.5 962.851563 328.46875 987.023438 329.058594 L 985.546875 334.953125 "/>
<path style=" stroke:none;fill-rule:nonzero;fill:rgb(36.936951%,32.276917%,23.449707%);fill-opacity:1;" d="M 1094.878906 325.519531 C 1083.96875 334.066406 1069.238281 338.191406 1055.390625 338.191406 C 1026.511719 338.191406 1014.71875 324.339844 1014.71875 296.046875 L 1014.71875 209.992188 L 989.375 209.992188 L 989.664063 203.214844 C 1008.238281 192.898438 1023.558594 178.753906 1035.351563 161.363281 L 1039.179688 162.839844 L 1039.179688 195.257813 L 1089.28125 195.257813 L 1085.738281 209.992188 L 1039.179688 209.992188 L 1039.179688 287.503906 C 1039.179688 308.132813 1045.371094 322.867188 1068.648438 322.867188 C 1078.078125 322.867188 1087.511719 320.804688 1096.058594 316.972656 L 1094.878906 325.519531 "/>
<path style=" stroke:none;fill-rule:nonzero;fill:rgb(36.936951%,32.276917%,23.449707%);fill-opacity:1;" d="M 1166.488281 199.089844 C 1145.558594 199.089844 1129.949219 217.066406 1129.949219 237.398438 L 1155.878906 237.398438 C 1162.949219 237.398438 1191.539063 238.285156 1193.601563 229.445313 C 1193.898438 227.96875 1194.191406 226.203125 1194.191406 224.730469 C 1194.191406 210.582031 1180.339844 199.089844 1166.488281 199.089844 Z M 1129.359375 245.652344 C 1129.058594 248.601563 1129.058594 251.84375 1129.058594 254.789063 C 1129.058594 289.5625 1142.03125 323.753906 1182.398438 323.753906 C 1195.671875 323.753906 1212.460938 319.328125 1223.660156 311.664063 L 1221.601563 329.351563 C 1208.339844 335.539063 1190.660156 338.191406 1176.21875 338.191406 C 1130.238281 338.191406 1100.769531 309.308594 1100.769531 263.335938 C 1100.769531 225.023438 1128.179688 189.949219 1168.261719 189.949219 C 1201.269531 189.949219 1224.851563 212.351563 1223.960938 245.652344 L 1129.359375 245.652344 "/>
<path style=" stroke:none;fill-rule:nonzero;fill:rgb(36.936951%,32.276917%,23.449707%);fill-opacity:1;" d="M 1357.171875 329.351563 C 1348.03125 335.246094 1328.289063 337.601563 1317.378906 337.601563 C 1273.46875 337.601563 1239.28125 310.78125 1239.28125 264.8125 C 1239.28125 221.488281 1265.808594 189.949219 1310.308594 189.949219 C 1322.101563 189.949219 1346.261719 193.195313 1356.871094 199.089844 L 1356.871094 230.03125 L 1349.800781 232.097656 C 1345.078125 210.582031 1332.121094 198.496094 1309.71875 198.496094 C 1277.890625 198.496094 1266.398438 225.613281 1266.398438 253.609375 C 1266.398438 288.976563 1281.71875 324.046875 1321.800781 324.046875 C 1331.820313 324.046875 1351.570313 320.511719 1359.230469 313.144531 L 1357.171875 329.351563 "/>
<path style=" stroke:none;fill-rule:nonzero;fill:rgb(36.936951%,32.276917%,23.449707%);fill-opacity:1;" d="M 1520.820313 334.953125 L 1470.71875 334.953125 C 1474.550781 326.699219 1475.730469 317.558594 1475.730469 308.425781 L 1475.730469 236.222656 C 1475.730469 216.476563 1466.589844 208.8125 1447.140625 208.8125 C 1433.878906 208.8125 1419.851563 213.527344 1409.539063 221.488281 L 1409.539063 298.410156 C 1409.539063 313.734375 1411.011719 328.46875 1429.871094 329.058594 L 1428.699219 334.953125 L 1379.78125 334.953125 C 1384.78125 329.058594 1384.78125 317.269531 1384.78125 309.605469 L 1384.78125 162.839844 C 1384.78125 141.914063 1384.488281 133.367188 1361.210938 131.894531 L 1363.269531 126 L 1409.539063 119.515625 L 1409.539063 212.058594 C 1424.269531 201.742188 1448.019531 192.015625 1466.589844 192.015625 C 1493.710938 192.015625 1500.488281 209.402344 1500.488281 232.6875 L 1500.488281 301.058594 C 1500.488281 315.5 1504.308594 329.941406 1522 329.058594 L 1520.820313 334.953125 "/>
<g clip-path="url(#clip1)" clip-rule="nonzero">
<path style=" stroke:none;fill-rule:nonzero;fill:rgb(100%,100%,100%);fill-opacity:1;" d="M 478.089844 239.410156 C 478.089844 371.324219 371.148438 478.261719 239.242188 478.261719 C 107.328125 478.261719 0.390625 371.324219 0.390625 239.410156 C 0.390625 107.496094 107.328125 0.558594 239.242188 0.558594 C 371.148438 0.558594 478.089844 107.496094 478.089844 239.410156 "/>
</g>
<path style=" stroke:none;fill-rule:nonzero;fill:rgb(95.298767%,45.098877%,12.89978%);fill-opacity:1;" d="M 272.855469 199.6875 C 263.167969 208.21875 250.296875 213.503906 240.339844 221.382813 C 239.144531 218.402344 239.289063 211.300781 239.734375 207.871094 C 243.875 176.996094 264.03125 154.605469 263.40625 121.65625 C 263.855469 108.035156 261.027344 95.6875 255.222656 84.5625 C 256.226563 83.800781 256.761719 85.226563 257.394531 85.441406 C 268.113281 102.804688 280.117188 119.617188 286.136719 138.871094 C 292.921875 159.554688 289.9375 184.652344 272.855469 199.6875 M 239.300781 0.00390625 C 107.140625 0.00390625 0 107.140625 0 239.300781 C 0 342.527344 65.089844 430.308594 156.679688 463.867188 L 157.222656 432.195313 L 159.429688 395.277344 C 162.261719 362.265625 166.074219 329.753906 173.964844 299.007813 C 176.65625 290.578125 178.390625 280.078125 188.066406 276.359375 C 201.117188 273.621094 215.296875 275.980469 229.011719 275.589844 C 229.0625 268.660156 231.117188 259.523438 228.320313 253.324219 L 225.332031 250.59375 L 161.683594 225.519531 C 160.5625 224.789063 159.230469 223.996094 159.332031 222.441406 L 159.34375 221.402344 L 238.734375 221.402344 C 237.5625 219.945313 235.660156 217.484375 234.5625 215.710938 L 226.429688 207.496094 L 200.042969 185.347656 C 189.179688 176.257813 184.230469 164.09375 186.746094 150.003906 C 191.507813 123.800781 218.019531 107.015625 227.277344 82.730469 C 226.375 87.796875 225.753906 91.53125 224.859375 95.40625 C 221.269531 114.921875 210.171875 124.1875 207.421875 144.136719 C 207.308594 146.605469 206.003906 155.914063 208.167969 157.152344 C 208.644531 145.789063 213.203125 135.691406 218.035156 125.960938 C 227.710938 110.15625 239.566406 97.839844 241.457031 78.585938 C 241.746094 75.605469 241.261719 69.515625 240.082031 65.640625 L 240.78125 65.65625 C 253.425781 86.085938 259.84375 111.421875 253.257813 136.886719 C 248.867188 161.328125 234.082031 185.296875 237.222656 211.492188 C 237.8125 215.355469 238.546875 219.460938 239.734375 221.402344 L 322.5 221.402344 C 323.109375 222.972656 322.238281 224.722656 320.738281 225.261719 L 254.65625 250.535156 C 252.300781 251.835938 250.492188 254.195313 250.03125 256.738281 C 250.355469 258.015625 249.136719 259.191406 250.253906 260.140625 C 253.242188 259.058594 257.410156 258.640625 259.917969 261.011719 C 260.429688 259.675781 259.75 258.046875 259.992188 256.421875 C 260.261719 253.53125 262.558594 251.167969 265.1875 250.21875 C 268.3125 249.425781 272.9375 247.960938 275.566406 250.898438 C 278.136719 253.769531 278.40625 257.734375 280.480469 260.667969 C 280.324219 257.339844 280.46875 253.460938 283.816406 251.75 C 287.171875 250.390625 292.207031 248.644531 295.339844 251.601563 C 301.421875 263.570313 305.464844 279.773438 309.695313 292.429688 C 312.089844 286.695313 317.171875 284.128906 322.242188 285.136719 C 324.710938 285.535156 327.589844 286.222656 328.46875 288.851563 C 327.433594 307.273438 331.238281 324.160156 333.980469 341.300781 C 334.738281 350.503906 340.851563 360.5 335.1875 369.300781 C 330.03125 377.058594 322.710938 383.441406 316.859375 390.890625 C 315.488281 392.710938 315.722656 395.398438 315.890625 397.660156 L 329.765625 460.957031 C 417.1875 425.34375 478.585938 339.53125 478.585938 239.300781 C 478.585938 107.140625 371.445313 0.00390625 239.300781 0.00390625 "/>
<path style=" stroke:none;fill-rule:nonzero;fill:rgb(95.298767%,45.098877%,12.89978%);fill-opacity:1;" d="M 282.785156 252.257813 C 279.0625 256.429688 283.234375 264.839844 283.980469 268.707031 L 292.636719 309.207031 C 292.898438 310.546875 293.441406 311.769531 293.417969 313.109375 C 290.433594 313.628906 287.597656 314.558594 284.621094 315.222656 C 283.875 313.082031 287.136719 312.355469 288.574219 311.179688 L 289.222656 310.351563 C 286.144531 292.5625 283 279.023438 280.980469 270.15625 C 280.242188 266.878906 277.421875 252.996094 275.042969 250.464844 L 282.785156 252.257813 "/>
<g clip-path="url(#clip2)" clip-rule="nonzero">
<path style=" stroke:none;fill-rule:nonzero;fill:rgb(95.298767%,45.098877%,12.89978%);fill-opacity:1;" d="M 274.273438 324.5 C 269.351563 319.46875 263.429688 314.570313 255.769531 316.191406 C 250.320313 316.523438 245.207031 318.34375 239.640625 317.824219 C 237.472656 315.804688 236.617188 312.820313 237.375 309.804688 C 240.84375 305.054688 247.066406 304.882813 252.046875 302.917969 C 259.585938 299.871094 267.722656 303.269531 273.136719 308.867188 L 275.964844 313.019531 C 276.679688 316.769531 276.875 321.582031 274.273438 324.5 M 275.164063 338.796875 C 274.34375 341.398438 273.578125 344.351563 271.496094 346.152344 C 268.144531 336.203125 258.09375 332.988281 249.003906 331.335938 C 246.257813 330.871094 243.425781 331.105469 241.351563 332.90625 C 238.632813 330.953125 238.625 327.136719 239.316406 324.035156 C 239.753906 322.90625 241.035156 322.363281 242.101563 322.105469 C 248.835938 320.882813 255.996094 319.660156 263.109375 320.5625 C 266.28125 321.605469 268.839844 324.34375 271.128906 326.847656 C 274.324219 330.089844 276.515625 334.15625 275.164063 338.796875 M 271.03125 364.800781 C 270.636719 367.261719 269.820313 369.515625 267.675781 371.175781 C 264.671875 373.164063 261.113281 374.378906 257.78125 374.960938 C 255.53125 366.570313 259.394531 355.546875 251.804688 349.191406 C 248.542969 345.464844 239.8125 344.179688 242.671875 337.664063 C 243.191406 336.46875 244.195313 335.492188 245.410156 334.886719 C 251.628906 334.988281 257.179688 336.574219 262.148438 339.699219 C 267.664063 347.074219 274.171875 354.882813 271.03125 364.800781 M 257.914063 417.882813 C 250.464844 418.1875 222.910156 418.035156 222.910156 418.035156 L 229.90625 298.277344 C 232.734375 298.277344 235.269531 298.128906 236.316406 297.386719 C 236.167969 299.914063 237.355469 301.554688 238.847656 303.199219 C 229.160156 308.710938 234.234375 318.09375 237.207031 320.617188 C 233.78125 329.414063 237.511719 333.289063 240.191406 335.667969 C 238.402344 341.335938 239.355469 344.757813 248.230469 349.671875 C 255.230469 353.539063 254.183594 366.054688 254.335938 370.375 C 254.488281 374.691406 257.914063 417.882813 257.914063 417.882813 M 240.886719 294.382813 C 244.007813 289.773438 249.601563 289.023438 254.363281 287.558594 C 259.746094 286.871094 267.617188 284.964844 270.773438 290.878906 C 272.117188 294.714844 274.304688 298.855469 272.601563 303.285156 C 267.632813 300.507813 262.601563 297.09375 256.226563 298.609375 C 251.535156 299.515625 246.859375 300.355469 242.453125 301.902344 C 240.367188 300.316406 240.136719 296.984375 240.886719 294.382813 M 280.046875 314.292969 C 279.878906 311.113281 277.023438 309.078125 275.730469 306.363281 C 278.085938 300.480469 275.800781 293.863281 273.492188 288.527344 C 272.546875 286.175781 269.960938 284.296875 267.859375 283.339844 C 265.777344 276.191406 259.398438 261.933594 260.144531 255.527344 L 255.53125 259.253906 C 258.804688 260.597656 260.835938 268.238281 261.429688 271.21875 L 264.484375 282.925781 L 254.644531 283.605469 C 254.699219 280.78125 255.109375 277.113281 251.882813 275.636719 L 251.046875 275.265625 L 250.042969 264.015625 C 249.746094 261.632813 250.609375 260.003906 251.957031 259.402344 L 252.546875 251.808594 C 249.5625 254.191406 248.363281 258.859375 247.929688 260.75 C 247.21875 263.824219 247.632813 270.273438 247.929688 275.636719 C 242.269531 277.421875 228.871094 273.847656 228.871094 273.847656 L 228.871094 275.636719 C 230.65625 276.238281 236.402344 277.378906 239.675781 277.972656 C 243.128906 278.605469 247.6875 277.402344 250.464844 279.851563 C 251.007813 281.5625 250.828125 283.746094 249.8125 285.214844 C 244.902344 287.109375 239.363281 288.851563 236.304688 294.03125 C 225.183594 295.457031 213.113281 294.890625 202.1875 293.066406 C 202.738281 298.164063 208.484375 296.714844 212.003906 297.835938 L 212.488281 298.128906 C 212.886719 307.460938 214.820313 318.09375 210.929688 326.652344 C 205.527344 336.730469 193.121094 334.964844 183.015625 335.269531 L 182.96875 337.816406 C 191.359375 338.53125 200.191406 338.828125 207.9375 336.207031 C 212.203125 334.722656 215.882813 330.273438 216.597656 325.894531 C 217.894531 316.59375 216.355469 307.59375 215.871094 298.539063 C 219.417969 297.90625 223.234375 297.96875 227.046875 298.105469 L 227.394531 298.601563 L 225.457031 332.484375 L 222.570313 380.417969 C 214.148438 381.257813 204.105469 381.644531 197.039063 377.425781 C 186.070313 370.585938 185.875 357.308594 186.222656 345.503906 L 182.484375 345.300781 L 181.304688 356.304688 L 178.644531 391.175781 L 177.851563 408.460938 C 177.75 409.800781 178.222656 411.222656 179.777344 411.179688 C 180.394531 396.074219 182.34375 381.550781 183.449219 366.660156 L 183.953125 366.167969 C 185.660156 369.871094 187.003906 373.648438 189.703125 376.941406 C 197.742188 386.0625 210.910156 384.3125 222.019531 383.792969 L 222.503906 384.300781 L 220.550781 419.242188 L 229.332031 419.355469 L 231.21875 419.429688 L 230.707031 478.109375 C 239.054688 478.46875 248.496094 478.066406 257.351563 477.648438 C 258.777344 477.113281 257.605469 475.320313 257.773438 474.125 L 254.644531 429.65625 L 254.105469 419.417969 L 260.5625 419.179688 L 257.699219 379.683594 L 258.351563 378.988281 C 261.535156 378.265625 264.527344 377.050781 267.585938 375.972656 C 275.621094 373.074219 274.800781 363.519531 275.210938 356.242188 C 271.285156 350.390625 278.292969 345.84375 278.738281 340.203125 C 280.722656 335.710938 278.472656 331.21875 276.5625 327.445313 C 280.222656 324.113281 279.605469 318.734375 280.046875 314.292969 "/>
</g>
<path style=" stroke:none;fill-rule:nonzero;fill:rgb(95.298767%,45.098877%,12.89978%);fill-opacity:1;" d="M 310.46875 308.171875 C 310.164063 304.296875 307.960938 297.835938 309.742188 292.46875 L 308.410156 287.855469 C 306.910156 290.53125 305.855469 295.34375 306.148438 298.910156 C 306.464844 311.96875 308.164063 318.601563 307.871094 330.886719 L 306.984375 333.0625 C 297.902344 339.96875 284.484375 343.050781 280.183594 354.984375 C 278.097656 368.742188 281.691406 381.867188 284.929688 394.367188 L 287.628906 393.917969 C 285.1875 383.839844 283.257813 373.128906 284.082031 362.121094 C 284.636719 346.59375 302.097656 341.953125 312.402344 334.640625 C 312.773438 325.742188 311.164063 316.875 310.46875 308.171875 "/>
<path style=" stroke:none;fill-rule:nonzero;fill:rgb(100%,100%,100%);fill-opacity:1;" d="M 87.609375 396.144531 C 88.550781 399.265625 90.265625 402.199219 92.773438 404.363281 C 98.011719 408.859375 104.957031 408.179688 109.695313 402.664063 C 114.503906 397.082031 114.988281 388.847656 109.140625 383.800781 C 106.292969 381.351563 102.5625 379.925781 98.996094 379.234375 L 98.878906 379.136719 L 104.609375 376.394531 C 107.109375 377.097656 109.347656 378.492188 111.320313 380.191406 C 120.285156 387.90625 121.515625 397.695313 114.515625 405.820313 C 107.75 413.683594 97.726563 414.113281 89.941406 407.410156 C 87.628906 405.410156 85.628906 402.976563 83.847656 400.515625 L 87.609375 396.144531 "/>
<path style=" stroke:none;fill-rule:nonzero;fill:rgb(100%,100%,100%);fill-opacity:1;" d="M 67.484375 376.410156 L 80.449219 372.425781 L 74.304688 364.707031 Z M 84.164063 371.136719 L 91.3125 368.789063 C 94.164063 367.851563 95.519531 367.222656 94.730469 364.78125 L 94.84375 364.683594 L 100.585938 371.894531 L 100.46875 371.996094 C 97.519531 370.621094 94.796875 371.703125 91.875 372.632813 L 70.320313 379.089844 C 68.46875 379.65625 66.230469 380.226563 67.140625 382.574219 L 67.023438 382.667969 L 62.09375 376.476563 L 75.714844 352.308594 C 77.226563 349.628906 78.863281 347.191406 78.222656 344.046875 L 78.339844 343.953125 L 84.734375 351.992188 L 84.617188 352.078125 C 82.226563 350.84375 82.042969 351.507813 80.144531 354.738281 L 76.304688 361.261719 L 84.164063 371.136719 "/>
<path style=" stroke:none;fill-rule:nonzero;fill:rgb(100%,100%,100%);fill-opacity:1;" d="M 67.199219 330.664063 C 65.714844 327.589844 63.269531 325.570313 60.214844 324.402344 L 60.136719 324.269531 L 67.230469 323.304688 L 77.25 341.304688 L 77.121094 341.367188 C 75.089844 339.578125 72 341.636719 70.027344 342.738281 L 53.527344 351.9375 C 51.515625 353.054688 48.171875 354.574219 48.589844 357.273438 L 48.457031 357.339844 L 43.792969 348.988281 L 43.925781 348.910156 C 46.003906 350.679688 49.070313 348.558594 51.039063 347.46875 L 70.121094 336.835938 L 67.199219 330.664063 "/>
<path style=" stroke:none;fill-rule:nonzero;fill:rgb(100%,100%,100%);fill-opacity:1;" d="M 40.503906 326.75 C 38.386719 327.648438 34.890625 328.777344 35.027344 331.496094 L 34.886719 331.554688 L 31.125 322.820313 L 31.261719 322.753906 C 33.128906 324.679688 36.414063 322.945313 38.484375 322.050781 L 55.835938 314.59375 C 57.910156 313.695313 61.386719 312.527344 61.273438 309.851563 L 61.410156 309.789063 L 65.171875 318.539063 L 65.03125 318.59375 C 63.214844 316.644531 59.925781 318.390625 57.855469 319.273438 L 40.503906 326.75 "/>
<path style=" stroke:none;fill-rule:nonzero;fill:rgb(100%,100%,100%);fill-opacity:1;" d="M 49.234375 296.046875 C 51.398438 295.417969 55.023438 294.765625 55.226563 292.085938 L 55.371094 292.050781 L 58.042969 301.136719 L 57.898438 301.183594 C 56.3125 298.980469 52.835938 300.324219 50.675781 300.957031 L 32.550781 306.28125 C 30.34375 306.929688 26.746094 307.667969 26.554688 310.394531 L 26.40625 310.4375 L 21.890625 295.050781 C 21.652344 294.230469 21.503906 293.382813 20.984375 292.863281 L 20.941406 292.722656 L 26.519531 291.078125 L 26.5625 291.222656 C 25.316406 293.214844 25.707031 295.230469 26.355469 297.445313 C 26.847656 299.136719 27.394531 300.800781 28.128906 302.253906 L 37.074219 299.625 L 35.378906 293.855469 C 35.164063 293.136719 34.941406 292.371094 34.480469 291.871094 L 34.441406 291.726563 L 39.535156 290.234375 L 39.578125 290.378906 C 38.359375 291.574219 39.050781 293.558594 39.488281 295.042969 L 40.53125 298.605469 L 49.234375 296.046875 "/>
<path style=" stroke:none;fill-rule:nonzero;fill:rgb(100%,100%,100%);fill-opacity:1;" d="M 34.199219 278.457031 C 41.152344 277.542969 47.660156 271.691406 46.640625 263.890625 C 45.648438 256.335938 39.503906 252.242188 32.105469 253.21875 C 24.851563 254.160156 18.453125 259.703125 19.480469 267.546875 C 20.488281 275.246094 26.695313 279.445313 34.199219 278.457031 Z M 30.371094 247.683594 C 40.5 246.347656 48.953125 253.785156 50.246094 263.667969 C 51.53125 273.507813 45.570313 282.726563 35.386719 284.066406 C 25.949219 285.292969 16.972656 278.136719 15.859375 267.671875 C 14.4375 257.246094 21.425781 248.855469 30.371094 247.683594 "/>
<path style=" stroke:none;fill-rule:nonzero;fill:rgb(100%,100%,100%);fill-opacity:1;" d="M 15.09375 227.484375 C 15.40625 220.785156 19.078125 217.292969 23.628906 217.496094 C 28.035156 217.710938 31.3125 221.71875 32.074219 225.867188 L 41.464844 219.078125 C 44.164063 217.09375 46.910156 214.058594 48.84375 211.296875 L 48.632813 215.894531 C 48.507813 218.554688 47.78125 220.171875 45.863281 221.589844 L 38.019531 227.34375 L 30.753906 231.625 C 30.339844 227.589844 28.699219 222.84375 23.996094 222.632813 C 20.394531 222.46875 18.148438 225.476563 18.144531 228.835938 C 18.140625 229.988281 18.234375 231.097656 18.390625 232.257813 L 40.808594 233.289063 C 43.109375 233.398438 46.75 233.867188 47.769531 231.351563 L 47.917969 231.359375 L 47.476563 240.917969 L 47.328125 240.914063 C 46.542969 238.316406 42.824219 238.496094 40.570313 238.394531 L 21.699219 237.527344 C 19.402344 237.414063 15.765625 236.894531 14.695313 239.410156 L 14.546875 239.40625 L 15.09375 227.484375 "/>
<path style=" stroke:none;fill-rule:nonzero;fill:rgb(100%,100%,100%);fill-opacity:1;" d="M 43.957031 204.164063 C 46.695313 204.78125 48.640625 205.277344 50.738281 203.027344 L 50.886719 203.0625 L 48.929688 211.710938 L 48.785156 211.675781 C 47.851563 208.75 45.898438 208.304688 43.160156 207.683594 L 23.664063 203.265625 C 20.929688 202.648438 18.972656 202.207031 16.933594 204.410156 L 16.785156 204.382813 L 18.402344 197.25 L 18.453125 197.257813 C 19.082031 197.199219 19.371094 197.054688 19.839844 196.800781 L 20.972656 196.339844 L 47.597656 183.566406 L 29.078125 179.371094 C 26.34375 178.753906 24.398438 178.265625 22.34375 180.519531 L 22.199219 180.484375 L 24.148438 171.882813 L 24.292969 171.921875 C 25.183594 174.792969 27.140625 175.238281 29.875 175.855469 L 57.289063 182.0625 C 55.328125 185.265625 53.371094 186.414063 50.101563 187.9375 L 25.050781 199.882813 L 43.957031 204.164063 "/>
<path style=" stroke:none;fill-rule:nonzero;fill:rgb(100%,100%,100%);fill-opacity:1;" d="M 35.332031 162.84375 C 33.175781 162.015625 29.886719 160.378906 28.085938 162.425781 L 27.941406 162.378906 L 31.34375 153.484375 L 31.484375 153.535156 C 31.476563 156.21875 35.050781 157.261719 37.152344 158.066406 L 54.796875 164.808594 C 56.902344 165.613281 60.214844 167.203125 62 165.203125 L 62.140625 165.257813 L 58.738281 174.148438 L 58.597656 174.089844 C 58.648438 171.433594 55.078125 170.386719 52.972656 169.585938 L 35.332031 162.84375 "/>
<path style=" stroke:none;fill-rule:nonzero;fill:rgb(100%,100%,100%);fill-opacity:1;" d="M 46.527344 131.703125 L 55.144531 142.175781 L 59.949219 133.554688 Z M 57.75 145.117188 L 62.652344 150.835938 C 64.59375 153.117188 65.691406 154.136719 67.652344 152.46875 L 67.78125 152.542969 L 63.296875 160.59375 L 63.164063 160.523438 C 63.308594 157.277344 61.273438 155.171875 59.316406 152.816406 L 45.132813 135.339844 C 43.902344 133.847656 42.523438 131.992188 40.699219 133.726563 L 40.566406 133.65625 L 44.417969 126.738281 L 71.945313 130.144531 C 74.996094 130.527344 77.890625 131.105469 80.546875 129.316406 L 80.679688 129.390625 L 75.679688 138.363281 L 75.550781 138.292969 C 75.777344 135.609375 75.105469 135.691406 71.382813 135.167969 L 63.894531 134.09375 L 57.75 145.117188 "/>
<path style=" stroke:none;fill-rule:nonzero;fill:rgb(100%,100%,100%);fill-opacity:1;" d="M 74.132813 96.777344 C 72.394531 95.257813 69.875 92.585938 67.476563 93.882813 L 67.359375 93.785156 L 73.628906 86.617188 L 73.742188 86.71875 C 72.8125 89.230469 75.796875 91.445313 77.496094 92.929688 L 91.714844 105.363281 C 93.414063 106.847656 95.96875 109.480469 98.332031 108.222656 L 98.445313 108.320313 L 92.179688 115.488281 L 92.066406 115.390625 C 93.035156 112.90625 90.046875 110.695313 88.347656 109.210938 L 74.132813 96.777344 "/>
<path style=" stroke:none;fill-rule:nonzero;fill:rgb(100%,100%,100%);fill-opacity:1;" d="M 101.933594 95.152344 C 103.777344 97.269531 105.054688 98.8125 108.078125 98.238281 L 108.175781 98.355469 L 101.488281 104.175781 L 101.390625 104.066406 C 102.371094 101.152344 101.054688 99.636719 99.210938 97.523438 L 86.082031 82.449219 C 84.238281 80.335938 82.921875 78.820313 79.96875 79.402344 L 79.871094 79.285156 L 85.386719 74.480469 L 85.417969 74.519531 C 85.964844 74.84375 86.277344 74.898438 86.808594 74.972656 L 87.996094 75.265625 L 117.027344 80.675781 L 104.554688 66.355469 C 102.710938 64.238281 101.433594 62.695313 98.445313 63.308594 L 98.34375 63.195313 L 104.992188 57.398438 L 105.09375 57.515625 C 104.117188 60.359375 105.429688 61.871094 107.273438 63.984375 L 125.738281 85.179688 C 122.265625 86.609375 120.007813 86.382813 116.46875 85.679688 L 89.195313 80.535156 L 101.933594 95.152344 "/>
<path style=" stroke:none;fill-rule:nonzero;fill:rgb(100%,100%,100%);fill-opacity:1;" d="M 133.144531 46.789063 C 130.429688 46.097656 127.179688 46.730469 124.785156 48.191406 C 122.347656 49.683594 119.839844 52.503906 121.644531 55.453125 C 125.21875 61.316406 139.875 52.246094 144.707031 60.15625 C 147.507813 64.730469 145.324219 71.9375 138.65625 76.007813 C 136.046875 77.601563 133.203125 78.808594 130.210938 79.398438 L 125.710938 74.808594 C 129.566406 75.449219 133.910156 74.679688 137.242188 72.640625 C 139.683594 71.152344 142.46875 67.449219 140.644531 64.460938 C 136.570313 57.789063 122.589844 67.96875 117.054688 58.902344 C 113.765625 53.511719 118.027344 48.09375 123.246094 44.90625 C 125.386719 43.597656 127.75 42.566406 130.191406 41.957031 L 133.144531 46.789063 "/>
<path style=" stroke:none;fill-rule:nonzero;fill:rgb(100%,100%,100%);fill-opacity:1;" d="M 164.546875 54.511719 C 165.667969 57.136719 166.386719 58.957031 169.4375 59.347656 L 169.496094 59.484375 L 160.355469 63.359375 L 160.300781 63.226563 C 162.234375 61.367188 160.53125 58.117188 159.648438 56.042969 L 150.925781 35.472656 L 146.863281 37.191406 C 144.882813 38.035156 143.019531 39.421875 142.15625 41.367188 L 142.023438 41.425781 L 141.308594 35.25 L 141.441406 35.195313 C 142.097656 35.1875 142.695313 34.933594 143.335938 34.769531 L 144.488281 34.285156 L 161.6875 26.984375 C 162.476563 26.652344 163.199219 26.292969 163.679688 25.765625 L 163.8125 25.703125 L 164.664063 31.816406 L 164.527344 31.875 C 163.242188 30.515625 161.304688 31.066406 159.777344 31.714844 L 155.632813 33.472656 L 164.546875 54.511719 "/>
<path style=" stroke:none;fill-rule:nonzero;fill:rgb(100%,100%,100%);fill-opacity:1;" d="M 173.941406 30.484375 C 173.273438 28.277344 172.535156 24.675781 169.8125 24.511719 L 169.773438 24.367188 L 178.875 21.59375 L 178.917969 21.734375 C 176.804688 23.375 178.171875 26.835938 178.828125 28.992188 L 184.335938 47.058594 C 184.996094 49.21875 185.777344 52.804688 188.453125 52.984375 L 188.492188 53.128906 L 179.386719 55.90625 L 179.34375 55.761719 C 181.472656 54.164063 180.101563 50.707031 179.453125 48.550781 L 173.941406 30.484375 "/>
<path style=" stroke:none;fill-rule:nonzero;fill:rgb(100%,100%,100%);fill-opacity:1;" d="M 206.214844 42.550781 C 206.726563 45.359375 207.027344 47.289063 209.917969 48.339844 L 209.945313 48.488281 L 200.191406 50.269531 L 200.167969 50.125 C 202.453125 48.738281 201.507813 45.195313 201.097656 42.976563 L 197.074219 20.996094 L 192.742188 21.789063 C 190.625 22.175781 188.507813 23.128906 187.230469 24.835938 L 187.089844 24.859375 L 187.742188 18.679688 L 187.890625 18.652344 C 188.527344 18.789063 189.167969 18.675781 189.824219 18.65625 L 191.0625 18.433594 L 209.433594 15.070313 C 210.277344 14.914063 211.058594 14.722656 211.644531 14.308594 L 211.792969 14.28125 L 211.289063 20.4375 L 211.144531 20.464844 C 210.183594 18.855469 208.167969 18.96875 206.539063 19.269531 L 202.105469 20.078125 L 206.214844 42.550781 "/>
<path style=" stroke:none;fill-rule:nonzero;fill:rgb(100%,100%,100%);fill-opacity:1;" d="M 244.835938 42.820313 C 242.667969 45.761719 238.585938 47.023438 235.066406 47.078125 C 231.769531 47.128906 228.246094 46.128906 225.953125 43.703125 C 223.253906 40.839844 223.304688 37.484375 223.253906 33.878906 L 223.058594 20.503906 C 223.019531 18.246094 223.316406 14.589844 220.742188 13.671875 L 220.742188 13.519531 L 230.265625 13.378906 L 230.265625 13.527344 C 227.769531 14.519531 228.128906 18.167969 228.160156 20.425781 L 228.355469 33.800781 C 228.460938 40.464844 231.3125 43.527344 236.46875 43.449219 C 239.273438 43.40625 242.113281 42.214844 243.734375 39.832031 C 244.816406 38.316406 244.746094 37.0625 244.722656 35.257813 L 244.488281 20.179688 C 244.457031 17.925781 244.707031 14.265625 242.1875 13.355469 L 242.1875 13.203125 L 251.703125 13.0625 L 251.75 13.210938 C 249.214844 14.199219 249.570313 17.851563 249.601563 20.15625 L 249.886719 39.039063 C 249.921875 41.296875 249.675781 44.953125 252.238281 45.871094 L 252.246094 46.019531 L 244.882813 46.132813 L 244.835938 42.820313 "/>
<path style=" stroke:none;fill-rule:nonzero;fill:rgb(100%,100%,100%);fill-opacity:1;" d="M 271.257813 42.140625 C 270.839844 44.960938 270.515625 46.886719 272.917969 48.808594 L 272.890625 48.960938 L 263.078125 47.523438 L 263.097656 47.378906 C 265.714844 46.796875 265.941406 43.136719 266.277344 40.902344 L 269.503906 18.792969 L 265.144531 18.15625 C 263.015625 17.84375 260.703125 18.066406 258.957031 19.277344 L 258.800781 19.253906 L 261.398438 13.609375 L 261.554688 13.628906 C 262.105469 13.964844 262.75 14.058594 263.378906 14.253906 L 264.621094 14.433594 L 283.113281 17.136719 C 283.960938 17.261719 284.753906 17.324219 285.449219 17.125 L 285.59375 17.144531 L 283.140625 22.808594 L 283.003906 22.789063 C 282.605469 20.960938 280.65625 20.421875 279.027344 20.183594 L 274.5625 19.53125 L 271.257813 42.140625 "/>
<path style=" stroke:none;fill-rule:nonzero;fill:rgb(100%,100%,100%);fill-opacity:1;" d="M 292.488281 49.066406 L 298.417969 51.453125 C 301.507813 52.679688 305.121094 52.652344 308.144531 51.25 L 308.289063 51.296875 L 304.265625 56.945313 L 284.230469 51.007813 L 284.277344 50.863281 C 286.980469 50.726563 287.746094 47.085938 288.386719 44.921875 L 293.753906 26.816406 C 294.410156 24.605469 295.734375 21.183594 293.554688 19.546875 L 293.601563 19.402344 L 308.976563 23.953125 C 309.789063 24.199219 310.574219 24.535156 311.296875 24.386719 L 311.449219 24.429688 L 309.78125 30.050781 L 309.640625 30.007813 C 308.652344 27.835938 306.738281 27.058594 304.539063 26.40625 C 302.859375 25.90625 301.164063 25.457031 299.53125 25.289063 L 296.890625 34.222656 L 302.601563 35.914063 C 303.367188 36.148438 304.144531 36.371094 304.804688 36.257813 L 304.953125 36.300781 L 303.4375 41.390625 L 303.292969 41.347656 C 302.9375 39.726563 300.90625 39.175781 299.414063 38.734375 L 295.867188 37.683594 L 292.488281 49.066406 "/>
<path style=" stroke:none;fill-rule:nonzero;fill:rgb(100%,100%,100%);fill-opacity:1;" d="M 333.019531 50.523438 C 329.527344 56.605469 330.234375 65.328125 337.054688 69.246094 C 343.664063 73.039063 350.644531 70.636719 354.367188 64.160156 C 358 57.820313 357.488281 49.371094 350.617188 45.429688 C 343.882813 41.566406 336.789063 43.960938 333.019531 50.523438 Z M 359.816406 66.136719 C 354.726563 75 343.691406 77.214844 335.046875 72.25 C 326.441406 67.308594 322.726563 56.976563 327.84375 48.070313 C 332.582031 39.8125 343.714844 37.019531 352.71875 42.476563 C 361.867188 47.671875 364.304688 58.316406 359.816406 66.136719 "/>
<path style=" stroke:none;fill-rule:nonzero;fill:rgb(100%,100%,100%);fill-opacity:1;" d="M 364.808594 83.144531 C 363.375 84.890625 360.761719 87.46875 362.097656 89.789063 L 362 89.90625 L 354.667969 83.917969 L 354.765625 83.800781 C 357.308594 84.722656 359.425781 81.65625 360.855469 79.910156 L 372.792969 65.28125 C 374.25 63.496094 376.800781 60.851563 375.421875 58.496094 L 375.519531 58.382813 L 387.9375 68.523438 C 388.59375 69.0625 389.191406 69.679688 389.921875 69.820313 L 390.03125 69.914063 L 386.363281 74.417969 L 386.242188 74.320313 C 386.144531 71.976563 384.6875 70.523438 382.898438 69.070313 C 381.535156 67.957031 380.152344 66.890625 378.714844 66.105469 L 372.828125 73.320313 L 377.480469 77.128906 C 378.058594 77.605469 378.683594 78.109375 379.339844 78.261719 L 379.460938 78.351563 L 376.097656 82.46875 L 375.984375 82.371094 C 376.3125 80.699219 374.613281 79.445313 373.410156 78.464844 L 370.539063 76.117188 L 364.808594 83.144531 "/>
<path style=" stroke:none;fill-rule:nonzero;fill:rgb(100%,100%,100%);fill-opacity:1;" d="M 392.449219 110.945313 C 390.28125 112.804688 388.765625 114.035156 389.304688 117.0625 L 389.191406 117.164063 L 382.738281 109.632813 L 382.851563 109.53125 C 385.207031 110.8125 387.792969 108.207031 389.496094 106.738281 L 406.476563 92.207031 L 403.609375 88.855469 C 402.203125 87.21875 400.320313 85.863281 398.203125 85.632813 L 398.113281 85.515625 L 403.777344 82.96875 L 403.875 83.082031 C 404.078125 83.703125 404.5 84.199219 404.847656 84.757813 L 405.660156 85.710938 L 417.824219 99.90625 C 418.367188 100.550781 418.929688 101.125 419.585938 101.425781 L 419.675781 101.539063 L 414.113281 104.199219 L 414.011719 104.085938 C 414.917969 102.453125 413.808594 100.765625 412.726563 99.511719 L 409.800781 96.085938 L 392.449219 110.945313 "/>
<path style=" stroke:none;fill-rule:nonzero;fill:rgb(100%,100%,100%);fill-opacity:1;" d="M 403.324219 129.246094 L 406.265625 134.921875 C 407.800781 137.863281 410.558594 140.199219 413.769531 141.113281 L 413.84375 141.238281 L 407.113281 142.894531 L 395.796875 125.332031 L 395.925781 125.25 C 398.066406 126.910156 401.015625 124.648438 402.914063 123.429688 L 418.792969 113.195313 C 420.730469 111.953125 423.964844 110.226563 423.386719 107.5625 L 423.511719 107.480469 L 432.191406 120.960938 C 432.65625 121.675781 433.03125 122.441406 433.683594 122.804688 L 433.761719 122.925781 L 428.839844 126.105469 L 428.746094 125.976563 C 429.425781 123.691406 428.484375 121.859375 427.234375 119.921875 C 426.285156 118.445313 425.296875 117 424.171875 115.8125 L 416.328125 120.863281 L 419.566406 125.875 C 419.996094 126.546875 420.4375 127.222656 421.011719 127.5625 L 421.09375 127.691406 L 416.632813 130.566406 L 416.550781 130.441406 C 417.339844 128.980469 416.152344 127.238281 415.316406 125.933594 L 413.304688 122.8125 L 403.324219 129.246094 "/>
<path style=" stroke:none;fill-rule:nonzero;fill:rgb(100%,100%,100%);fill-opacity:1;" d="M 445.390625 161.339844 C 445.867188 158.109375 445.582031 154.734375 444.238281 151.710938 C 441.4375 145.390625 434.859375 143.039063 428.21875 145.988281 C 421.488281 148.980469 417.519531 156.21875 420.644531 163.269531 C 422.171875 166.710938 424.933594 169.585938 427.859375 171.742188 L 427.917969 171.882813 L 421.574219 171.902344 C 419.609375 170.195313 418.195313 167.976563 417.125 165.601563 C 412.339844 154.785156 415.417969 145.425781 425.21875 141.070313 C 434.695313 136.867188 443.9375 140.769531 448.097656 150.160156 C 449.339844 152.953125 450.09375 156.019531 450.65625 159.003906 L 445.390625 161.339844 "/>
<path style=" stroke:none;fill-rule:nonzero;fill:rgb(100%,100%,100%);fill-opacity:1;" d="M 440.347656 180.582031 L 431.535156 182.707031 C 429.339844 183.238281 425.714844 183.804688 425.375 186.460938 L 425.222656 186.496094 L 423.003906 177.242188 L 423.140625 177.207031 C 424.65625 179.417969 428.140625 178.269531 430.328125 177.738281 L 448.75 173.304688 C 450.941406 172.769531 454.582031 172.261719 454.898438 169.550781 L 455.054688 169.515625 L 457.28125 178.769531 L 457.132813 178.808594 C 455.625 176.59375 452.140625 177.738281 449.894531 178.285156 L 443.859375 179.734375 L 448.09375 197.320313 L 454.132813 195.863281 C 456.378906 195.320313 460.011719 194.8125 460.34375 192.101563 L 460.488281 192.066406 L 462.730469 201.371094 L 462.582031 201.410156 C 461.058594 199.144531 457.574219 200.296875 455.382813 200.824219 L 436.972656 205.257813 C 434.773438 205.789063 431.148438 206.351563 430.824219 209.058594 L 430.671875 209.097656 L 428.433594 199.792969 L 428.582031 199.757813 C 430.109375 202.015625 433.578125 200.820313 435.769531 200.289063 L 444.582031 198.164063 L 440.347656 180.582031 "/>
<path style=" stroke:none;fill-rule:nonzero;fill:rgb(100%,100%,100%);fill-opacity:1;" d="M 438.082031 219.652344 C 435.28125 219.761719 433.273438 219.800781 431.835938 222.519531 L 431.6875 222.527344 L 431.304688 213.667969 L 431.464844 213.65625 C 433.128906 216.238281 435.125 216.164063 437.933594 216.039063 L 457.902344 215.1875 C 460.699219 215.070313 462.707031 214.988281 464.101563 212.3125 L 464.25 212.308594 L 464.5625 219.613281 L 464.507813 219.613281 C 463.917969 219.839844 463.679688 220.054688 463.289063 220.429688 L 462.316406 221.171875 L 439.980469 240.476563 L 458.953125 239.667969 C 461.75 239.539063 463.753906 239.515625 465.144531 236.796875 L 465.289063 236.785156 L 465.671875 245.59375 L 465.519531 245.601563 C 463.90625 243.070313 461.902344 243.15625 459.101563 243.273438 L 431.019531 244.476563 C 432.066406 240.867188 433.65625 239.238281 436.410156 236.921875 L 457.449219 218.820313 L 438.082031 219.652344 "/>
<path style=" stroke:none;fill-rule:nonzero;fill:rgb(100%,100%,100%);fill-opacity:1;" d="M 448.632813 258.800781 C 441.695313 257.699219 433.800781 261.476563 432.574219 269.246094 C 431.386719 276.765625 436.125 282.441406 443.503906 283.597656 C 450.726563 284.738281 458.421875 281.238281 459.660156 273.421875 C 460.871094 265.75 456.105469 259.980469 448.632813 258.800781 Z M 443.597656 289.398438 C 433.5 287.804688 427.496094 278.277344 429.046875 268.433594 C 430.59375 258.644531 438.929688 251.480469 449.074219 253.082031 C 458.476563 254.566406 465.054688 263.976563 463.179688 274.328125 C 461.582031 284.726563 452.503906 290.800781 443.597656 289.398438 "/>
<path style=" stroke:none;fill-rule:nonzero;fill:rgb(100%,100%,100%);fill-opacity:1;" d="M 423.933594 305.796875 C 422.628906 308.941406 422.746094 312.121094 423.90625 315.175781 L 423.859375 315.3125 L 418.421875 310.675781 L 425.171875 291.222656 L 425.316406 291.269531 C 425.332031 293.976563 428.929688 294.914063 431.0625 295.648438 L 448.902344 301.847656 C 451.078125 302.609375 454.4375 304.082031 456.175781 301.992188 L 456.320313 302.035156 L 453.175781 311.066406 L 453.039063 311.023438 C 452.972656 308.300781 449.351563 307.421875 447.230469 306.671875 L 426.597656 299.511719 L 423.933594 305.796875 "/>
<path style=" stroke:none;fill-rule:nonzero;fill:rgb(100%,100%,100%);fill-opacity:1;" d="M 428.726563 329.726563 C 422.613281 326.296875 413.898438 327.085938 410.042969 333.9375 C 406.304688 340.578125 408.773438 347.550781 415.28125 351.199219 C 421.660156 354.777344 430.101563 354.195313 433.980469 347.296875 C 437.78125 340.515625 435.328125 333.441406 428.726563 329.726563 Z M 413.355469 356.675781 C 404.445313 351.667969 402.132813 340.644531 407.019531 331.960938 C 411.875 323.304688 422.183594 319.496094 431.132813 324.527344 C 439.4375 329.207031 442.328125 340.316406 436.953125 349.363281 C 431.835938 358.554688 421.222656 361.097656 413.355469 356.675781 "/>
<path style=" stroke:none;fill-rule:nonzero;fill:rgb(100%,100%,100%);fill-opacity:1;" d="M 398.535156 390.519531 L 398.625 390.40625 C 401.710938 390.339844 404.726563 387.90625 406.714844 385.582031 C 411.800781 379.648438 411.792969 371.789063 405.667969 366.550781 C 399.53125 361.304688 390.722656 362.203125 385.578125 368.21875 C 384.078125 369.964844 382.738281 371.988281 381.765625 374.117188 L 387.253906 378.820313 C 388.996094 380.308594 390.894531 381.875 393.046875 380.746094 L 393.15625 380.84375 L 388.179688 386.671875 L 388.0625 386.570313 C 387.773438 385.992188 387.160156 385.46875 386.585938 384.976563 L 377.839844 377.484375 C 377.265625 376.988281 376.6875 376.441406 375.964844 376.199219 C 377.996094 372.675781 379.964844 369.214844 382.609375 366.136719 C 390.945313 356.390625 401.191406 355.203125 408.839844 361.746094 C 417.027344 368.761719 416.558594 379.632813 408.671875 388.847656 C 406.949219 390.859375 405.019531 392.648438 402.90625 394.261719 L 398.535156 390.519531 "/>
<path style=" stroke:none;fill-rule:nonzero;fill:rgb(100%,100%,100%);fill-opacity:1;" d="M 365.171875 392.777344 C 363.238281 390.472656 362.277344 389.320313 359.125 389.539063 L 359.035156 389.425781 L 366.523438 383.148438 L 366.613281 383.273438 C 365.542969 385.808594 367.898438 388.070313 369.414063 389.875 L 374.171875 395.5625 L 389.148438 400.480469 C 391.597656 401.296875 393.425781 401.914063 396.101563 401.382813 L 392.613281 404.304688 C 391.382813 405.332031 390 406.035156 388.828125 405.640625 L 374.285156 400.765625 L 375.507813 411.898438 C 375.664063 413.410156 376.324219 415.996094 379.339844 415.226563 L 379.441406 415.34375 L 372.714844 420.96875 L 370.261719 398.84375 L 365.171875 392.777344 "/>
<path style=" stroke:none;fill-rule:nonzero;fill:rgb(100%,100%,100%);fill-opacity:1;" d="M 83.632813 250.640625 C 83.632813 248.992188 83.90625 246.375 81.894531 245.699219 L 81.894531 245.589844 L 89.378906 245.589844 L 89.378906 245.699219 C 87.410156 246.375 87.644531 249.023438 87.644531 250.640625 L 87.644531 264.128906 C 87.644531 265.734375 87.410156 268.351563 89.378906 269.027344 L 89.378906 269.140625 L 81.894531 269.140625 L 81.894531 269.027344 C 83.863281 268.390625 83.632813 265.734375 83.632813 264.128906 L 83.632813 250.640625 "/>
<path style=" stroke:none;fill-rule:nonzero;fill:rgb(100%,100%,100%);fill-opacity:1;" d="M 112.28125 251.269531 C 112.28125 249.023438 110.273438 247.375 106.496094 247.375 C 104.367188 247.375 101.652344 248.207031 101.652344 250.488281 C 101.652344 253.53125 106.496094 254.605469 109.050781 255.355469 C 110.667969 254.574219 112.28125 253.0625 112.28125 251.269531 Z M 100.707031 262.554688 C 100.707031 265.496094 103.34375 267.347656 107.4375 267.347656 C 110.234375 267.347656 113.777344 266.199219 113.777344 263.265625 C 113.777344 259.6875 107.988281 258.6875 105.039063 257.867188 C 102.988281 258.609375 100.707031 260.398438 100.707031 262.554688 Z M 97.671875 251.101563 C 97.671875 247.449219 101.609375 245.015625 107.046875 245.015625 C 111.0625 245.015625 116.257813 246.621094 116.257813 250.960938 C 116.257813 253.53125 113.738281 255.214844 111.457031 256.257813 C 114.761719 257.683594 117.753906 259.042969 117.753906 262.835938 C 117.753906 266.917969 113.1875 269.710938 107.164063 269.710938 C 101.53125 269.710938 96.730469 267.203125 96.730469 263.054688 C 96.730469 259.722656 99.566406 257.898438 102.636719 256.753906 C 99.921875 255.757813 97.671875 253.96875 97.671875 251.101563 "/>
<path style=" stroke:none;fill-rule:nonzero;fill:rgb(100%,100%,100%);fill-opacity:1;" d="M 125.855469 267.632813 C 132.152344 266.449219 137.902344 261.234375 137.902344 255.214844 C 137.902344 251.566406 135.65625 247.5625 131.128906 247.5625 C 127.746094 247.5625 125.382813 249.949219 125.382813 252.960938 C 125.382813 256.222656 127.746094 258.800781 131.367188 258.800781 C 132.824219 258.800781 134.277344 258.332031 135.539063 257.652344 L 132.859375 260.617188 C 131.839844 260.976563 130.777344 261.15625 129.671875 261.15625 C 125.066406 261.15625 121.40625 258.042969 121.40625 253.707031 C 121.40625 248.492188 126.09375 245.015625 131.640625 245.015625 C 137.824219 245.015625 141.878906 249.414063 141.878906 254.820313 C 141.878906 258.933594 139.472656 262.910156 135.96875 265.445313 C 132.390625 268.023438 128.375 269.316406 123.886719 269.84375 L 125.855469 267.632813 "/>
<path style=" stroke:none;fill-rule:nonzero;fill:rgb(100%,100%,100%);fill-opacity:1;" d="M 150.527344 250.640625 C 150.527344 248.992188 150.804688 246.375 148.796875 245.699219 L 148.796875 245.589844 L 156.277344 245.589844 L 156.277344 245.699219 C 154.3125 246.375 154.546875 249.023438 154.546875 250.640625 L 154.546875 264.128906 C 154.546875 265.734375 154.3125 268.351563 156.277344 269.027344 L 156.277344 269.140625 L 148.796875 269.140625 L 148.796875 269.027344 C 150.761719 268.390625 150.527344 265.734375 150.527344 264.128906 L 150.527344 250.640625 "/>
</g>
</svg>
